<!--?xml version="1.0" encoding="utf-8"?-->
<!-- Generator: Adobe Illustrator 15.1.0, SVG Export Plug-In . SVG Version: 6.00 Build 0)  -->

<svg version="1.1" id="_x32_" xmlns="http://www.w3.org/2000/svg" xmlns:xlink="http://www.w3.org/1999/xlink" x="0px" y="0px" width="512px" height="512px" viewBox="0 0 512 512" style="width: 256px; height: 256px; opacity: 1;" xml:space="preserve">
<style type="text/css">

	.st0{fill:#4B4B4B;}

</style>
<g>
	<path class="st0" d="M396.719,140.719H115.281C51.719,140.719,0,192.438,0,256s51.719,115.281,115.281,115.281h281.438
		C460.266,371.281,512,319.563,512,256S460.266,140.719,396.719,140.719z M396.719,344.156H115.281
		c-48.594,0-88.156-39.547-88.156-88.156s39.563-88.156,88.156-88.156h281.438c48.594,0,88.156,39.547,88.156,88.156
		S445.313,344.156,396.719,344.156z" style="fill: rgb(40, 167, 69);"></path>
	<path class="st0" d="M397.984,198.328c-31.859,0-57.672,25.828-57.672,57.672s25.813,57.688,57.672,57.688
		s57.672-25.844,57.672-57.688S429.844,198.328,397.984,198.328z" style="fill: rgb(40, 167, 69);"></path>
	<path class="st0" d="M114.016,198.328c-31.859,0-57.688,25.828-57.688,57.672s25.828,57.688,57.688,57.688
		c31.844,0,57.672-25.844,57.672-57.688S145.859,198.328,114.016,198.328z" style="fill: rgb(40, 167, 69);"></path>
	<path class="st0" d="M256,198.328c-31.859,0-57.688,25.828-57.688,57.672s25.828,57.688,57.688,57.688
		c31.844,0,57.672-25.844,57.672-57.688S287.844,198.328,256,198.328z" style="fill: rgb(40, 167, 69);"></path>
</g>
</svg>
